<?xml version="1.0" standalone="no"?><!DOCTYPE svg PUBLIC "-//W3C//DTD SVG 1.1//EN" "http://www.w3.org/Graphics/SVG/1.1/DTD/svg11.dtd"><svg t="1693301825172" class="icon" viewBox="0 0 1024 1024" version="1.1" xmlns="http://www.w3.org/2000/svg" p-id="4899" xmlns:xlink="http://www.w3.org/1999/xlink" width="200" height="200"><path d="M835.047619 829.19619h-52.662857c-6.826667 0-12.190476-5.36381-12.190476-12.190476s5.36381-12.190476 12.190476-12.190476h52.662857c20.23619 0 36.571429-16.335238 36.571429-36.571428V146.529524c0-20.23619-16.335238-36.571429-36.571429-36.571429H297.935238c-20.23619 0-36.571429 16.335238-36.571428 36.571429v10.971428c0 6.826667-5.36381 12.190476-12.190477 12.190477s-12.190476-5.36381-12.190476-12.190477v-10.971428a60.952381 60.952381 0 0 1 60.952381-60.952381h537.112381a60.952381 60.952381 0 0 1 60.952381 60.952381v621.714286a60.952381 60.952381 0 0 1-60.952381 60.95238z" p-id="4900"></path><path d="M594.895238 938.179048H188.952381a60.952381 60.952381 0 0 1-60.952381-60.952381v-621.714286a60.952381 60.952381 0 0 1 60.952381-60.952381h537.112381a60.952381 60.952381 0 0 1 60.952381 60.952381V746.057143c0 3.169524-1.219048 6.339048-3.657143 8.533333l-179.931429 179.687619c-2.194286 2.681905-5.12 3.900952-8.533333 3.900953zM188.952381 218.940952c-20.23619 0-36.571429 16.335238-36.571429 36.571429v621.714286c0 20.23619 16.335238 36.571429 36.571429 36.571428H590.019048l172.617142-172.617143V255.512381c0-20.23619-16.335238-36.571429-36.571428-36.571429H188.952381z" p-id="4901"></path><path d="M594.895238 938.179048c-6.826667 0-12.190476-5.36381-12.190476-12.190477V794.819048a60.952381 60.952381 0 0 1 60.952381-60.952381h131.169524c6.826667 0 12.190476 5.36381 12.190476 12.190476s-5.36381 12.190476-12.190476 12.190476H643.657143c-20.23619 0-36.571429 16.335238-36.571429 36.571429v131.169523c0 6.826667-5.36381 12.190476-12.190476 12.190477zM671.939048 388.388571H365.470476c-6.826667 0-12.190476-5.36381-12.190476-12.190476s5.36381-12.190476 12.190476-12.190476h306.224762c6.826667 0 12.190476 5.36381 12.190476 12.190476s-5.36381 12.190476-11.946666 12.190476zM671.939048 515.169524H365.470476c-6.826667 0-12.190476-5.36381-12.190476-12.190476s5.36381-12.190476 12.190476-12.190477h306.224762c6.826667 0 12.190476 5.36381 12.190476 12.190477s-5.36381 12.190476-11.946666 12.190476zM671.939048 642.194286H365.470476c-6.826667 0-12.190476-5.36381-12.190476-12.190476s5.36381-12.190476 12.190476-12.190477h306.224762c6.826667 0 12.190476 5.36381 12.190476 12.190477s-5.36381 12.190476-11.946666 12.190476zM522.727619 768.975238H365.714286c-6.826667 0-12.190476-5.36381-12.190476-12.190476s5.36381-12.190476 12.190476-12.190476h157.013333c6.826667 0 12.190476 5.36381 12.190476 12.190476s-5.607619 12.190476-12.190476 12.190476zM280.137143 388.388571h-34.133333c-6.826667 0-12.190476-5.36381-12.190477-12.190476s5.36381-12.190476 12.190477-12.190476h34.133333c6.826667 0 12.190476 5.36381 12.190476 12.190476s-5.607619 12.190476-12.190476 12.190476zM280.137143 515.169524h-34.133333c-6.826667 0-12.190476-5.36381-12.190477-12.190476s5.36381-12.190476 12.190477-12.190477h34.133333c6.826667 0 12.190476 5.36381 12.190476 12.190477s-5.607619 12.190476-12.190476 12.190476zM280.137143 642.194286h-34.133333c-6.826667 0-12.190476-5.36381-12.190477-12.190476s5.36381-12.190476 12.190477-12.190477h34.133333c6.826667 0 12.190476 5.36381 12.190476 12.190477s-5.607619 12.190476-12.190476 12.190476zM280.137143 768.975238h-34.133333c-6.826667 0-12.190476-5.36381-12.190477-12.190476s5.36381-12.190476 12.190477-12.190476h34.133333c6.826667 0 12.190476 5.36381 12.190476 12.190476s-5.607619 12.190476-12.190476 12.190476z" p-id="4902"></path></svg>