<?xml version="1.0" standalone="no"?><!DOCTYPE svg PUBLIC "-//W3C//DTD SVG 1.1//EN" "http://www.w3.org/Graphics/SVG/1.1/DTD/svg11.dtd"><svg t="1693301868948" class="icon" viewBox="0 0 1024 1024" version="1.1" xmlns="http://www.w3.org/2000/svg" p-id="5998" xmlns:xlink="http://www.w3.org/1999/xlink" width="200" height="200"><path d="M768 245.333333c-76.373333 0-138.666667 62.293333-138.666667 138.666667 0 41.386667 18.133333 78.506667 47.146667 103.68A306.069333 306.069333 0 0 1 533.333333 522.666667c-111.573333 0-214.613333-60.16-269.226666-157.226667-0.213333-0.213333-0.213333-0.426667-0.426667-0.64 1.066667-4.48 2.133333-8.96 3.626667-13.226667A138.922667 138.922667 0 0 0 394.666667 213.333333c0-76.373333-62.293333-138.666667-138.666667-138.666666S117.333333 136.96 117.333333 213.333333a138.666667 138.666667 0 0 0 86.186667 128.213334C188.8 396.8 181.333333 454.186667 181.333333 512s7.253333 114.986667 21.973334 170.453333c-50.346667 20.693333-85.973333 70.4-85.973334 128.213334 0 76.373333 62.293333 138.666667 138.666667 138.666666s138.666667-62.293333 138.666667-138.666666c0-72.746667-56.32-132.693333-127.786667-138.24-14.293333-52.266667-21.546667-106.026667-21.546667-160.426667 0-19.413333 0.853333-38.826667 2.986667-58.026667 69.76 83.2 173.866667 132.693333 285.013333 132.693334 76.586667 0 149.546667-22.826667 211.84-65.92 7.466667 1.28 15.146667 1.92 22.826667 1.92 76.373333 0 138.666667-62.293333 138.666667-138.666667s-62.293333-138.666667-138.666667-138.666667zM247.893333 746.666667h0.426667c2.56 0 5.12-5.546667 7.68-5.546667 41.173333 0 74.666667 28.373333 74.666667 69.546667s-33.493333 74.666667-74.666667 74.666666-74.666667-28.373333-74.666667-69.546666c0-38.4 29.226667-69.12 66.56-69.12zM181.333333 213.333333c0-41.173333 33.493333-74.666667 74.666667-74.666666s74.666667 33.493333 74.666667 74.666666-33.493333 74.666667-74.666667 74.666667-74.666667-33.493333-74.666667-74.666667zM768 458.666667c-41.173333 0-74.666667-33.493333-74.666667-74.666667s33.493333-74.666667 74.666667-74.666667 74.666667 33.493333 74.666667 74.666667-33.493333 74.666667-74.666667 74.666667z" p-id="5999"></path></svg>